<svg xmlns="http://www.w3.org/2000/svg" xmlns:xlink="http://www.w3.org/1999/xlink" width="210" height="41" viewBox="0 0 210 41"><defs><style>.a{fill:#3b216a;}.b{clip-path:url(#a);}.c{fill:#9beb51;}.d{fill:#634992;}.e{fill:#fff;font-size:18px;font-family:Montserrat-Medium, Montserrat;font-weight:500;}</style><clipPath id="a"><rect class="a" width="210" height="41" transform="translate(-358 218)"/></clipPath></defs><g class="b" transform="translate(358 -218)"><rect class="a" width="210" height="41" transform="translate(-358 218)"/><rect class="c" width="210" height="41" transform="translate(-358 218)"/><rect class="a" width="210" height="41" transform="translate(-358 218)"/><rect class="d" width="35" height="41" transform="translate(-183 218)"/><text class="e" transform="translate(-338 245)"><tspan x="0" y="0">Nossos serviços</tspan></text><path class="c" d="M68.681,65.594l-6.928-6.86a1.633,1.633,0,0,1,2.309-2.309l8.07,8.095a1.631,1.631,0,0,1,.051,2.25l-7.951,7.977a1.63,1.63,0,1,1-2.309-2.3l6.758-6.852Z" transform="translate(-232.443 172.911)"/></g></svg>