<svg xmlns="http://www.w3.org/2000/svg" width="210.831" height="42.886" viewBox="0 0 210.831 42.886"><defs><style>.a{fill:#90b528;fill-rule:evenodd;}.b{fill:#51a133;}</style></defs><g transform="translate(-120.755 -195.85)"><path class="a" d="M633.8,195.85H664.47v30.668c0-18.026-12.642-30.668-30.668-30.668" transform="translate(-332.885)"/><path class="b" d="M503.279,264.227l-4.064-9.765-4.064,9.765Zm-9.664,3.7-2.24,5.391h-4.032l9.857-23.7h4.032l9.857,23.7h-4.032l-2.24-5.391Z" transform="translate(-237.856 -34.883)"/><rect class="b" width="3.776" height="23.702" transform="translate(242.08 214.73)"/><path class="b" d="M408.6,268.622a7.518,7.518,0,0,0,3.36-.7,11.588,11.588,0,0,0,2.944-2.221l2.432,2.645a10.936,10.936,0,0,1-8.625,4.17,11.216,11.216,0,0,1-8.417-3.459,13.111,13.111,0,0,1,.064-17.564,11.466,11.466,0,0,1,8.608-3.526,10.985,10.985,0,0,1,8.689,4.069l-2.4,2.78a10.5,10.5,0,0,0-3.024-2.272,8.053,8.053,0,0,0-3.344-.644,7.706,7.706,0,0,0-5.7,2.323,8.07,8.07,0,0,0-2.3,5.934,8.453,8.453,0,0,0,2.288,6.035,7.214,7.214,0,0,0,5.424,2.424" transform="translate(-179.207 -33.819)"/><path class="b" d="M341.455,249.613h3.776v23.7h-4.1l-12.673-17.293v17.293h-3.776v-23.7h3.776l12.993,17.7Z" transform="translate(-132.318 -34.883)"/><path class="b" d="M280.8,249.613v3.764H268.867v6.273h10.721v3.56H268.867v6.341h12.321v3.764h-16.1v-23.7Z" transform="translate(-93.651 -34.883)"/><path class="b" d="M276.058,231.075h3.328l3.9,4.543h-3.1l-2.464-1.9-2.464,1.9h-3.1Z" transform="translate(-98.233 -22.855)"/><path class="b" d="M213.078,260.105v8.72q-3.168,3.7-9.057,3.7a11.084,11.084,0,0,1-8.3-3.459,13.11,13.11,0,0,1,.064-17.564,11.04,11.04,0,0,1,8.24-3.526,11.322,11.322,0,0,1,8.032,2.984l-2.016,3.052a7.759,7.759,0,0,0-2.64-1.645,9.475,9.475,0,0,0-3.088-.458,7.706,7.706,0,0,0-5.7,2.323,9.289,9.289,0,0,0-.064,12.173,7.311,7.311,0,0,0,5.424,2.289,9.259,9.259,0,0,0,5.329-1.458v-3.125h-3.877v-4Z" transform="translate(-46.468 -33.819)"/><path class="b" d="M137.086,264.227l-4.165-9.765-4.165,9.765Zm-9.9,3.7-2.3,5.391h-4.132l10.1-23.7h4.132l10.1,23.7h-4.132l-2.3-5.391Z" transform="translate(0 -34.883)"/><path class="b" d="M641.288,251.62v-3.646h13.4v3.195l-5.538,6.562a6.534,6.534,0,0,1,4.916,2.1,6.953,6.953,0,0,1,1.769,4.774,7.414,7.414,0,0,1-2.376,5.833,8.841,8.841,0,0,1-6.112,2.118,12.5,12.5,0,0,1-7.307-2.535l1.638-3.3a9.781,9.781,0,0,0,5.9,2.083,5.265,5.265,0,0,0,3.293-.99,3.368,3.368,0,0,0,1.294-2.847A3.557,3.557,0,0,0,650.726,262a6.4,6.4,0,0,0-4-1.111,7.929,7.929,0,0,0-2.457.382v-3.125l5.308-6.528Z" transform="translate(-336.934 -33.82)"/><path class="b" d="M592.365,250.9a4.737,4.737,0,0,0-2.7.712,2.421,2.421,0,0,0-1.056,2.153,2.552,2.552,0,0,0,1.056,2.2,15.393,15.393,0,0,0,4.5,1.645,12.052,12.052,0,0,1,5.184,2.475,6.044,6.044,0,0,1,1.744,4.7,6.374,6.374,0,0,1-2.208,5.035,8.474,8.474,0,0,1-5.792,1.933,13.19,13.19,0,0,1-9.312-3.832l2.368-3.018a10.355,10.355,0,0,0,7.04,3.119,4.609,4.609,0,0,0,2.9-.831,2.651,2.651,0,0,0,1.072-2.2,2.524,2.524,0,0,0-1.008-2.136,10.258,10.258,0,0,0-3.472-1.391,29.892,29.892,0,0,1-3.744-1.152,8.356,8.356,0,0,1-2.272-1.373,5.887,5.887,0,0,1-1.984-4.883,6.081,6.081,0,0,1,2.256-5.069,8.737,8.737,0,0,1,5.584-1.78,12.7,12.7,0,0,1,4.256.746,10.953,10.953,0,0,1,3.648,2.1l-2.016,3.018a7.519,7.519,0,0,0-2.688-1.56,9.829,9.829,0,0,0-3.344-.61" transform="translate(-300.425 -33.317)"/></g></svg>