<svg xmlns="http://www.w3.org/2000/svg" width="19" height="19" viewBox="0 0 19 19"><defs><style>.a{fill:#53bb5f;}.b{fill:#f1f1f1;}</style></defs><g transform="translate(-1071 -4634)"><circle class="a" cx="9.5" cy="9.5" r="9.5" transform="translate(1071 4634)"/><path class="b" d="M11.148,66.814a.134.134,0,0,1,.215.1v4.539A1.066,1.066,0,0,1,10.3,72.523H1.065A1.066,1.066,0,0,1,0,71.457V66.921a.133.133,0,0,1,.215-.1c.5.386,1.156.877,3.42,2.521a3.971,3.971,0,0,0,2.046,1.056A3.972,3.972,0,0,0,7.73,69.338C9.994,67.693,10.651,67.2,11.148,66.814ZM5.682,69.682c.515.009,1.256-.648,1.629-.919,2.945-2.137,3.169-2.324,3.849-2.856a.531.531,0,0,0,.2-.419v-.422A1.066,1.066,0,0,0,10.3,64H1.065A1.066,1.066,0,0,0,0,65.065v.422a.534.534,0,0,0,.2.419c.679.53.9.719,3.849,2.856C4.426,69.034,5.167,69.691,5.682,69.682Z" transform="translate(1074.801 4575.239)"/></g></svg>