<svg xmlns="http://www.w3.org/2000/svg" width="224.797" height="45.727" viewBox="0 0 224.797 45.727"><defs><style>.a,.b{fill:#fff;}.a{fill-rule:evenodd;}</style></defs><g transform="translate(-29.441 -14.555)"><path class="a" d="M57.437,14.555h32.7v32.7c0-19.22-13.476-32.7-32.7-32.7" transform="translate(164.105)"/><path class="b" d="M66.435,33.065,62.1,22.656,57.768,33.065ZM56.128,37.011l-2.388,5.75h-4.3L59.95,17.489h4.3L74.765,42.761h-4.3l-2.388-5.75Z" transform="translate(117.258 17.198)"/><rect class="b" width="4.026" height="25.272" transform="translate(158.804 34.684)"/><path class="b" d="M56.932,39.418a8.031,8.031,0,0,0,3.589-.741,12.45,12.45,0,0,0,3.136-2.367l2.594,2.82a11.665,11.665,0,0,1-9.195,4.446,11.937,11.937,0,0,1-8.975-3.692,12.85,12.85,0,0,1-3.568-9.325,12.99,12.99,0,0,1,3.637-9.4A12.234,12.234,0,0,1,57.33,17.4a11.733,11.733,0,0,1,9.263,4.337L64.034,24.7a11.38,11.38,0,0,0-3.225-2.422,8.687,8.687,0,0,0-3.568-.686,8.239,8.239,0,0,0-6.073,2.477A8.6,8.6,0,0,0,48.711,30.4a9.012,9.012,0,0,0,2.436,6.436,7.708,7.708,0,0,0,5.784,2.587" transform="translate(88.342 16.671)"/><path class="b" d="M58.449,17.489h4.027V42.761H58.108L44.6,24.322V42.761H40.569V17.489H44.6L58.449,36.361Z" transform="translate(65.229 17.195)"/><path class="b" d="M54.071,17.489V21.5H41.344v6.689H52.774v3.8H41.344v6.761H54.481v4.013H37.317V17.489Z" transform="translate(46.167 17.195)"/><path class="b" d="M41.865,16.477h3.549l4.162,4.844H46.267L43.639,19.3l-2.627,2.025H37.7Z" transform="translate(48.426 11.266)"/><path class="b" d="M55.423,30.333v9.3q-3.376,3.942-9.654,3.946a11.792,11.792,0,0,1-8.852-3.692,12.85,12.85,0,0,1-3.568-9.325,12.985,12.985,0,0,1,3.63-9.4,11.782,11.782,0,0,1,8.79-3.76,12.062,12.062,0,0,1,8.563,3.184l-2.148,3.252a8.384,8.384,0,0,0-2.813-1.757,10.209,10.209,0,0,0-3.294-.487A8.217,8.217,0,0,0,40,24.069a8.84,8.84,0,0,0-2.457,6.512,8.859,8.859,0,0,0,2.388,6.471,7.788,7.788,0,0,0,5.778,2.436A9.91,9.91,0,0,0,51.4,37.936V34.6H47.265V30.333Z" transform="translate(22.908 16.671)"/><path class="b" d="M46.856,33.065,42.41,22.656,37.97,33.065ZM36.3,37.011l-2.45,5.75H29.441L40.207,17.489h4.405L55.385,42.761H50.98l-2.45-5.75Z" transform="translate(0 17.198)"/><path class="b" d="M59.108,21.29V17.4H73.394v3.41l-5.9,6.992a6.981,6.981,0,0,1,5.242,2.244,7.409,7.409,0,0,1,1.887,5.085,7.9,7.9,0,0,1-2.539,6.224,9.424,9.424,0,0,1-6.512,2.258,13.319,13.319,0,0,1-7.795-2.7l1.75-3.513a10.451,10.451,0,0,0,6.285,2.216,5.641,5.641,0,0,0,3.513-1.05,3.608,3.608,0,0,0,1.379-3.04,3.781,3.781,0,0,0-1.537-3.163,6.824,6.824,0,0,0-4.261-1.187,8.381,8.381,0,0,0-2.621.412V28.247l5.661-6.958Z" transform="translate(166.098 16.671)"/><path class="b" d="M63.867,21.3a5.028,5.028,0,0,0-2.882.762,2.569,2.569,0,0,0-1.125,2.292A2.711,2.711,0,0,0,60.985,26.7a16.319,16.319,0,0,0,4.79,1.75,12.915,12.915,0,0,1,5.531,2.642,6.434,6.434,0,0,1,1.86,5.009,6.787,6.787,0,0,1-2.354,5.366,9.018,9.018,0,0,1-6.176,2.065,14.061,14.061,0,0,1-9.929-4.09l2.525-3.218a11.046,11.046,0,0,0,7.507,3.328,4.915,4.915,0,0,0,3.088-.885,2.823,2.823,0,0,0,1.139-2.354,2.708,2.708,0,0,0-1.07-2.278,11.018,11.018,0,0,0-3.705-1.482A31.573,31.573,0,0,1,60.2,31.328a8.872,8.872,0,0,1-2.422-1.462,6.288,6.288,0,0,1-2.113-5.208,6.5,6.5,0,0,1,2.408-5.407,9.3,9.3,0,0,1,5.949-1.894,13.455,13.455,0,0,1,4.542.8,11.816,11.816,0,0,1,3.891,2.237L70.3,23.608a8.054,8.054,0,0,0-2.861-1.661,10.538,10.538,0,0,0-3.568-.652" transform="translate(148.103 16.425)"/></g></svg>