<svg xmlns="http://www.w3.org/2000/svg" width="19" height="19" viewBox="0 0 19 19"><defs><style>.a{fill:#53bb5f;}.b{fill:#f1f1f1;}</style></defs><g transform="translate(-1071 -4584)"><circle class="a" cx="9.5" cy="9.5" r="9.5" transform="translate(1071 4584)"/><path class="b" d="M74.452,71.459a6.452,6.452,0,0,1-2.026-.323.926.926,0,0,0-.9.19l-1.278.965a7.061,7.061,0,0,1-3.175-3.174l.936-1.244a.919.919,0,0,0,.226-.931,6.461,6.461,0,0,1-.324-2.03A.913.913,0,0,0,67,64H64.912a.913.913,0,0,0-.912.912A10.463,10.463,0,0,0,74.452,75.364a.913.913,0,0,0,.912-.912V72.371A.913.913,0,0,0,74.452,71.459Z" transform="translate(1010.818 4523.818)"/></g></svg>