<svg xmlns="http://www.w3.org/2000/svg" width="30.843" height="30.843" viewBox="0 0 30.843 30.843"><defs><style>.a{fill:#9beb51;}</style></defs><path class="a" d="M15.422,30.843A15.422,15.422,0,1,1,15.422,0a15.422,15.422,0,0,1,10.9,26.326A15.32,15.32,0,0,1,15.422,30.843Zm0-24.86c-1.681,0-3.174.025-3.9.066A5.585,5.585,0,0,0,7.573,7.57a5.566,5.566,0,0,0-1.526,3.955c-.088,1.564-.088,6.223,0,7.789a5.555,5.555,0,0,0,1.526,3.955,5.6,5.6,0,0,0,3.953,1.526c.721.04,2.214.066,3.9.066s3.173-.025,3.894-.066a5.576,5.576,0,0,0,3.953-1.526A5.578,5.578,0,0,0,24.8,19.314c.089-1.567.089-6.222,0-7.782A5.573,5.573,0,0,0,23.27,7.574,5.576,5.576,0,0,0,19.316,6.05C18.6,6.009,17.1,5.983,15.422,5.983Zm1.661,17.189c-.352,0-.691,0-.991-.006-.249,0-.475,0-.67,0s-.414,0-.657,0c-.3,0-.625.006-.969.006a13.551,13.551,0,0,1-3.939-.391,3.2,3.2,0,0,1-1.794-1.794,17.137,17.137,0,0,1-.387-4.913c0-.243,0-.463,0-.654s0-.413,0-.657A17.2,17.2,0,0,1,8.06,9.852,3.2,3.2,0,0,1,9.854,8.057a13.266,13.266,0,0,1,3.89-.39c.357,0,.7,0,1,.007.251,0,.479,0,.675,0s.417,0,.663,0c.3,0,.632-.006.979-.006a13.488,13.488,0,0,1,3.924.39,3.2,3.2,0,0,1,1.794,1.794,16.907,16.907,0,0,1,.386,4.893c0,.251,0,.479,0,.675s0,.424,0,.675a16.978,16.978,0,0,1-.384,4.892,3.2,3.2,0,0,1-1.794,1.794A13.325,13.325,0,0,1,17.083,23.172ZM15.419,10.58a4.842,4.842,0,1,0,4.84,4.84A4.845,4.845,0,0,0,15.419,10.58Zm5.038-1.332a1.13,1.13,0,0,0,0,2.259h.009a1.119,1.119,0,0,0,.791-.33,1.132,1.132,0,0,0-.8-1.929Zm-5.036,9.32a3.148,3.148,0,1,1,3.148-3.148A3.153,3.153,0,0,1,15.421,18.568Z"/></svg>