<svg xmlns="http://www.w3.org/2000/svg" width="30.843" height="30.843" viewBox="0 0 30.843 30.843"><defs><style>.a{fill:#9beb51;}</style></defs><path class="a" d="M15.422,30.843A15.422,15.422,0,1,1,15.422,0a15.422,15.422,0,0,1,10.9,26.326A15.32,15.32,0,0,1,15.422,30.843ZM18.366,14.9c1.713,0,1.713,1.625,1.713,2.812v5.169h3.289l0-5.833c0-2.623-.478-5.05-3.95-5.05a3.483,3.483,0,0,0-3.12,1.713h-.046V12.264H13.095V22.881h3.293V17.624C16.388,16.277,16.623,14.9,18.366,14.9ZM7.733,12.264V22.881h3.3V12.264ZM9.38,6.978a1.918,1.918,0,1,0,1.909,1.91A1.912,1.912,0,0,0,9.38,6.978Z"/></svg>