<svg xmlns="http://www.w3.org/2000/svg" width="19.001" height="19" viewBox="0 0 19.001 19"><defs><style>.a{fill:#53bb5f;}</style></defs><path class="a" d="M9.5,19a9.5,9.5,0,1,1,0-19,9.5,9.5,0,0,1,6.718,16.218A9.438,9.438,0,0,1,9.5,19Zm0-15.315c-1.036,0-1.955.016-2.4.041a3.44,3.44,0,0,0-2.436.937A3.429,3.429,0,0,0,3.725,7.1c-.054.964-.054,3.834,0,4.8a3.422,3.422,0,0,0,.94,2.436,3.449,3.449,0,0,0,2.436.94c.444.025,1.364.04,2.4.04s1.955-.015,2.4-.04a3.435,3.435,0,0,0,2.436-.94,3.436,3.436,0,0,0,.94-2.436c.055-.965.055-3.833,0-4.794a3.433,3.433,0,0,0-.94-2.438A3.435,3.435,0,0,0,11.9,3.727C11.456,3.7,10.536,3.686,9.5,3.686Zm1.023,10.589c-.217,0-.426,0-.61,0l-.413,0-.4,0c-.183,0-.385,0-.6,0a8.348,8.348,0,0,1-2.427-.241,1.969,1.969,0,0,1-1.105-1.105A10.557,10.557,0,0,1,4.728,9.9c0-.149,0-.285,0-.4s0-.254,0-.4a10.6,10.6,0,0,1,.237-3.026A1.969,1.969,0,0,1,6.071,4.964a8.173,8.173,0,0,1,2.4-.24c.22,0,.43,0,.616,0l.416,0,.408,0c.186,0,.39,0,.6,0a8.309,8.309,0,0,1,2.417.24,1.969,1.969,0,0,1,1.105,1.105,10.415,10.415,0,0,1,.238,3.014c0,.155,0,.3,0,.416s0,.261,0,.416a10.459,10.459,0,0,1-.236,3.014,1.969,1.969,0,0,1-1.105,1.105A8.209,8.209,0,0,1,10.524,14.275ZM9.5,6.518A2.983,2.983,0,1,0,12.481,9.5,2.984,2.984,0,0,0,9.5,6.518ZM12.6,5.7a.7.7,0,0,0,0,1.392h.006a.689.689,0,0,0,.487-.2A.7.7,0,0,0,12.6,5.7ZM9.5,11.439A1.939,1.939,0,1,1,11.439,9.5,1.942,1.942,0,0,1,9.5,11.439Z"/></svg>