<svg xmlns="http://www.w3.org/2000/svg" width="23.251" height="23.251" viewBox="0 0 23.251 23.251"><defs><style>.a{fill:#9beb51;}</style></defs><path class="a" d="M11.626,23.251A11.626,11.626,0,1,1,11.626,0a11.626,11.626,0,0,1,8.22,19.846A11.549,11.549,0,0,1,11.626,23.251Zm2.219-12.018c1.292,0,1.292,1.225,1.292,2.12v3.9h2.48l0-4.4c0-1.977-.361-3.807-2.977-3.807a2.626,2.626,0,0,0-2.352,1.292h-.035V9.245H9.872v8h2.483V13.286C12.354,12.271,12.531,11.233,13.845,11.233ZM5.83,9.245v8H8.315v-8ZM7.071,5.261A1.446,1.446,0,1,0,8.51,6.7,1.441,1.441,0,0,0,7.071,5.261Z"/></svg>