<svg xmlns="http://www.w3.org/2000/svg" width="23.999" height="23.999" viewBox="0 0 23.999 23.999"><defs><style>.a{fill:#9beb51;}</style></defs><path class="a" d="M12,24A12,12,0,0,1,3.515,3.515a12,12,0,0,1,16.97,16.97A11.921,11.921,0,0,1,12,24ZM7.888,5.837a.9.9,0,0,0-.894.793A10.357,10.357,0,0,0,16,18.157a.906.906,0,0,0,1.005-.786l.251-2.045a.9.9,0,0,0-.786-1.005,6.38,6.38,0,0,1-1.951-.562.9.9,0,0,0-.387-.084.855.855,0,0,0-.521.162l-1.371.793a7,7,0,0,1-2.736-3.5l1.069-1.109a.914.914,0,0,0,.335-.887A6.38,6.38,0,0,1,10.835,7.1a.9.9,0,0,0-.786-1.006L8,5.844A.906.906,0,0,0,7.888,5.837Z"/></svg>