<svg xmlns="http://www.w3.org/2000/svg" width="159.092" height="32.361" viewBox="0 0 159.092 32.361"><defs><style>.a,.b{fill:#fff;}.a{fill-rule:evenodd;}</style></defs><g transform="translate(-29.441 -14.555)"><path class="a" d="M57.437,14.555H80.576V37.694c0-13.6-9.537-23.139-23.139-23.139" transform="translate(107.956)"/><path class="b" d="M61.469,28.512,58.4,21.146l-3.069,7.367ZM54.175,31.3l-1.69,4.069h-3.04L56.88,17.489h3.045l7.44,17.885H64.319L62.629,31.3Z" transform="translate(77.138 11.314)"/><rect class="b" width="2.849" height="17.886" transform="translate(120.993 28.8)"/><path class="b" d="M53.3,32.982a5.683,5.683,0,0,0,2.54-.524,8.811,8.811,0,0,0,2.219-1.675l1.836,2a8.255,8.255,0,0,1-6.507,3.147,8.448,8.448,0,0,1-6.352-2.613,9.094,9.094,0,0,1-2.525-6.6,9.193,9.193,0,0,1,2.574-6.653,8.658,8.658,0,0,1,6.5-2.661,8.3,8.3,0,0,1,6.556,3.069l-1.811,2.1a8.053,8.053,0,0,0-2.282-1.714,6.148,6.148,0,0,0-2.525-.486,5.831,5.831,0,0,0-4.3,1.753A6.087,6.087,0,0,0,47.484,26.6a6.378,6.378,0,0,0,1.724,4.555A5.455,5.455,0,0,0,53.3,32.982" transform="translate(58.116 10.967)"/><path class="b" d="M53.223,17.489h2.85V35.374H52.981l-9.563-13.05v13.05h-2.85V17.489h2.85l9.8,13.357Z" transform="translate(42.911 11.312)"/><path class="b" d="M49.174,17.489v2.84H40.167v4.734h8.09v2.686h-8.09v4.785h9.3v2.84H37.317V17.489Z" transform="translate(30.371 11.312)"/><path class="b" d="M40.648,16.477H43.16l2.946,3.428H43.764L41.9,18.472l-1.859,1.433H37.7Z" transform="translate(31.857 7.411)"/><path class="b" d="M48.971,26.553v6.58a8.5,8.5,0,0,1-6.833,2.792,8.345,8.345,0,0,1-6.264-2.613,9.094,9.094,0,0,1-2.525-6.6,9.189,9.189,0,0,1,2.569-6.653A8.338,8.338,0,0,1,42.139,17.4a8.537,8.537,0,0,1,6.06,2.253l-1.52,2.3a5.933,5.933,0,0,0-1.991-1.243,7.225,7.225,0,0,0-2.331-.345,5.815,5.815,0,0,0-4.3,1.753,6.256,6.256,0,0,0-1.739,4.608,6.27,6.27,0,0,0,1.69,4.579A5.511,5.511,0,0,0,42.1,33.031a7.013,7.013,0,0,0,4.026-1.1v-2.36H43.2V26.553Z" transform="translate(15.07 10.967)"/><path class="b" d="M41.766,28.512l-3.147-7.367-3.142,7.367ZM34.292,31.3l-1.734,4.069H29.441L37.06,17.489h3.118L47.8,35.374H44.684L42.951,31.3Z" transform="translate(0 11.314)"/><path class="b" d="M58.719,20.152V17.4H68.83v2.414l-4.176,4.948a4.941,4.941,0,0,1,3.71,1.588,5.244,5.244,0,0,1,1.335,3.6,5.592,5.592,0,0,1-1.8,4.4,6.67,6.67,0,0,1-4.608,1.6,9.426,9.426,0,0,1-5.517-1.913l1.238-2.486a7.4,7.4,0,0,0,4.448,1.569,3.992,3.992,0,0,0,2.486-.743,2.554,2.554,0,0,0,.976-2.151,2.676,2.676,0,0,0-1.088-2.239,4.83,4.83,0,0,0-3.016-.84,5.931,5.931,0,0,0-1.855.291v-2.36l4.006-4.924Z" transform="translate(109.267 10.967)"/><path class="b" d="M61.19,20.144a3.559,3.559,0,0,0-2.04.539,1.818,1.818,0,0,0-.8,1.622,1.918,1.918,0,0,0,.8,1.666,11.548,11.548,0,0,0,3.39,1.238,9.14,9.14,0,0,1,3.914,1.87,4.553,4.553,0,0,1,1.316,3.545,4.8,4.8,0,0,1-1.666,3.8,6.382,6.382,0,0,1-4.371,1.462,9.951,9.951,0,0,1-7.027-2.894l1.787-2.278a7.818,7.818,0,0,0,5.313,2.355,3.478,3.478,0,0,0,2.185-.626,2,2,0,0,0,.806-1.666,1.917,1.917,0,0,0-.758-1.612,7.8,7.8,0,0,0-2.622-1.049,22.344,22.344,0,0,1-2.826-.869,6.279,6.279,0,0,1-1.714-1.034,4.45,4.45,0,0,1-1.5-3.686,4.6,4.6,0,0,1,1.7-3.827,6.582,6.582,0,0,1,4.21-1.34,9.523,9.523,0,0,1,3.215.563A8.362,8.362,0,0,1,67.265,19.5L65.74,21.781a5.7,5.7,0,0,0-2.025-1.175,7.457,7.457,0,0,0-2.525-.461" transform="translate(97.429 10.805)"/></g></svg>