<svg xmlns="http://www.w3.org/2000/svg" width="19" height="19" viewBox="0 0 19 19"><defs><style>.a{fill:#53bb5f;}.b{fill:#f1f1f1;}</style></defs><g transform="translate(-1071 -4786)"><circle class="a" cx="9.5" cy="9.5" r="9.5" transform="translate(1071 4786)"/><path class="b" d="M10.3,50.406c.007.1.007.2.007.306a6.651,6.651,0,0,1-6.7,6.7A6.651,6.651,0,0,1,0,56.353a4.87,4.87,0,0,0,.568.029A4.714,4.714,0,0,0,3.49,55.376a2.358,2.358,0,0,1-2.2-1.632,2.969,2.969,0,0,0,.445.036,2.489,2.489,0,0,0,.619-.08A2.354,2.354,0,0,1,.466,51.39v-.029a2.37,2.37,0,0,0,1.064.3A2.357,2.357,0,0,1,.8,48.512a6.69,6.69,0,0,0,4.853,2.463,2.657,2.657,0,0,1-.058-.539,2.356,2.356,0,0,1,4.073-1.61,4.634,4.634,0,0,0,1.494-.568,2.347,2.347,0,0,1-1.035,1.3,4.718,4.718,0,0,0,1.355-.364,5.059,5.059,0,0,1-1.18,1.217Z" transform="translate(1074.758 4742.754)"/></g></svg>