<svg xmlns="http://www.w3.org/2000/svg" width="19" height="19" viewBox="0 0 19 19"><defs><style>.a{fill:#53bb5f;}.b{fill:#f1f1f1;}</style></defs><g transform="translate(-1071 -4516)"><circle class="a" cx="9.5" cy="9.5" r="9.5" transform="translate(1071 4516)"/><g transform="translate(919.85 4411.3)"><path class="b" d="M160.65,108a4.672,4.672,0,0,0-4.65,4.684c0,3.67,4.213,7.459,4.392,7.619a.388.388,0,0,0,.516,0c.179-.16,4.392-3.949,4.392-7.619A4.672,4.672,0,0,0,160.65,108Zm0,7.234a2.583,2.583,0,1,1,2.583-2.583,2.586,2.586,0,0,1-2.583,2.583Zm0,0"/></g></g></svg>