<svg xmlns="http://www.w3.org/2000/svg" width="23.251" height="23.251" viewBox="0 0 23.251 23.251"><defs><style>.a{fill:#9beb51;}</style></defs><path class="a" d="M11.626,23.251A11.626,11.626,0,1,1,11.626,0a11.626,11.626,0,0,1,8.22,19.846A11.549,11.549,0,0,1,11.626,23.251Zm0-18.741c-1.268,0-2.393.019-2.937.05a4.21,4.21,0,0,0-2.98,1.146,4.2,4.2,0,0,0-1.15,2.981c-.066,1.179-.066,4.691,0,5.872a4.187,4.187,0,0,0,1.15,2.981,4.221,4.221,0,0,0,2.98,1.15c.544.03,1.669.049,2.937.049s2.392-.019,2.936-.049a4.2,4.2,0,0,0,2.98-1.15,4.2,4.2,0,0,0,1.15-2.981c.067-1.181.067-4.69,0-5.867a4.2,4.2,0,0,0-1.15-2.983,4.2,4.2,0,0,0-2.98-1.149C14.019,4.53,12.894,4.51,11.626,4.51Zm1.252,12.958c-.265,0-.521,0-.747,0-.188,0-.358,0-.505,0l-.5,0c-.223,0-.471,0-.731,0a10.215,10.215,0,0,1-2.969-.294,2.409,2.409,0,0,1-1.353-1.353,12.918,12.918,0,0,1-.292-3.7c0-.183,0-.349,0-.493s0-.311,0-.5a12.967,12.967,0,0,1,.29-3.7A2.409,2.409,0,0,1,7.429,6.074a10,10,0,0,1,2.933-.294c.269,0,.527,0,.754,0,.189,0,.361,0,.509,0s.314,0,.5,0c.228,0,.477,0,.738,0a10.168,10.168,0,0,1,2.958.294,2.409,2.409,0,0,1,1.353,1.353,12.745,12.745,0,0,1,.291,3.689c0,.189,0,.361,0,.509s0,.32,0,.509a12.8,12.8,0,0,1-.289,3.688,2.409,2.409,0,0,1-1.353,1.353A10.045,10.045,0,0,1,12.878,17.468ZM11.624,7.976a3.65,3.65,0,1,0,3.648,3.648A3.652,3.652,0,0,0,11.624,7.976Zm3.8-1a.852.852,0,1,0,0,1.7h.007a.843.843,0,0,0,.6-.249.853.853,0,0,0-.6-1.454ZM11.625,14A2.373,2.373,0,1,1,14,11.624,2.377,2.377,0,0,1,11.625,14Z"/></svg>