<svg xmlns="http://www.w3.org/2000/svg" width="23.999" height="23.999" viewBox="0 0 23.999 23.999"><defs><style>.a{fill:#9beb51;}</style></defs><path class="a" d="M12,24A12,12,0,0,1,3.515,3.515a12,12,0,0,1,16.97,16.97A11.921,11.921,0,0,1,12,24ZM10.658,12.544,5.673,15.7a.784.784,0,0,0,.769.671H17.558a.784.784,0,0,0,.769-.671l-4.985-3.152-1.123.74a.4.4,0,0,1-.437,0Zm7.694-3.3-4.283,2.822,4.283,2.707Zm-12.7,0h0v5.53l4.283-2.707Zm.794-1.61a.786.786,0,0,0-.77.676L12,12.478l6.328-4.169a.784.784,0,0,0-.77-.676Z"/></svg>